# xmcd
#
# Track frame offsets: 
#        150
#        23759
#        36063
#        53401
#        66387
#        79562
#        97070
#        112705
#        132183
#        145482
#        186234
#
# Disc length: 2715 seconds
#
# Revision: 4
# Processed by: cddbd v1.5.2PL0 Copyright (c) Steve Scherf et al.
# Submitted via: ExactAudioCopy v0.99pb5
#
DISCID=8d0a990b
DTITLE=Cats - Live Part 1
DYEAR=1984
DGENRE=Pop
TTITLE0=Rock and Roll
TTITLE1=Lies
TTITLE2=Trying to explain
TTITLE3=Without your love
TTITLE4=Take me with you
TTITLE5=Goodbye baby
TTITLE6=Sail away
TTITLE7=Lonely road
TTITLE8=A room full of tears
TTITLE9=Medley (Jukebox, Lea, Why, Marian, Where have I been wrong)
TTITLE10=Let's dance
EXTD=
EXTT0=
EXTT1=
EXTT2=
EXTT3=
EXTT4=
EXTT5=
EXTT6=
EXTT7=
EXTT8=
EXTT9=
EXTT10=
PLAYORDER=
